<svg width="118.692017" height="38.358276" viewBox="0 0 118.692 38.3583" fill="none" xmlns="http://www.w3.org/2000/svg" xmlns:xlink="http://www.w3.org/1999/xlink">
	<desc>
			Created with Pixso.
	</desc>
	<defs/>
	<path id="Vector" d="M8.93201 4.98206C8.93201 6.15796 8.58203 7.09595 7.88196 7.78198C7.09802 8.60803 6.07605 9.02795 4.802 9.02795C3.58398 9.02795 2.54797 8.60803 1.70801 7.76794C0.868042 6.92798 0.447998 5.87805 0.447998 4.646C0.447998 3.41394 0.868042 2.36401 1.70801 1.52405C2.54797 0.68396 3.58398 0.25 4.802 0.25C5.41797 0.25 6.00598 0.361938 6.552 0.572021C7.09802 0.796021 7.54602 1.104 7.896 1.49597L7.12598 2.26599C6.87402 1.95801 6.53796 1.70605 6.11804 1.53796C5.703 1.35742 5.25452 1.26685 4.802 1.27197C3.89197 1.27197 3.10803 1.59399 2.47803 2.224C1.84802 2.86804 1.54004 3.66602 1.54004 4.63196C1.54004 5.59802 1.84802 6.396 2.47803 7.04004C3.10803 7.67004 3.87805 7.99194 4.802 7.99194C5.64197 7.99194 6.328 7.75403 6.88794 7.29199C7.448 6.82996 7.77002 6.172 7.854 5.35999L4.802 5.35999L4.802 4.35205L8.87598 4.35205C8.90405 4.57605 8.93201 4.78601 8.93201 4.98206ZM15.386 0.446045L15.386 1.48206L11.564 1.48206L11.564 4.14197L15.0079 4.14197L15.0079 5.15002L11.564 5.15002L11.564 7.81006L15.386 7.81006L15.386 8.84595L10.486 8.84595L10.486 0.446045L15.386 0.446045ZM19.936 1.48206L19.936 8.84595L18.858 8.84595L18.858 1.48206L16.506 1.48206L16.506 0.446045L22.274 0.446045L22.274 1.48206L19.936 1.48206ZM27.538 8.84595L26.46 8.84595L26.46 0.446045L27.538 0.446045L27.538 8.84595ZM32.326 1.48206L32.326 8.84595L31.248 8.84595L31.248 1.48206L28.896 1.48206L28.896 0.446045L34.6641 0.446045L34.6641 1.48206L32.326 1.48206ZM46.83 4.646C46.83 5.89197 46.41 6.92798 45.584 7.76794C44.744 8.60803 43.722 9.02795 42.504 9.02795C41.286 9.02795 40.264 8.60803 39.424 7.76794C38.598 6.92798 38.178 5.89197 38.178 4.646C38.178 3.40002 38.598 2.36401 39.424 1.52405C40.25 0.68396 41.272 0.25 42.504 0.25C43.722 0.25 44.744 0.670044 45.584 1.52405C46.424 2.37805 46.83 3.41394 46.83 4.646ZM39.298 4.646C39.298 5.61194 39.606 6.42395 40.208 7.05396C40.824 7.68396 41.594 8.00598 42.504 8.00598C43.4139 8.00598 44.184 7.68396 44.786 7.05396C45.402 6.42395 45.71 5.62598 45.71 4.646C45.71 3.66602 45.402 2.86804 44.786 2.23804C44.17 1.60803 43.4139 1.28601 42.504 1.28601C41.594 1.28601 40.824 1.60803 40.208 2.23804C39.606 2.86804 39.298 3.68005 39.298 4.646ZM49.42 8.84595L48.342 8.84595L48.342 0.446045L49.658 0.446045L53.746 6.98401L53.788 6.98401L53.746 5.35999L53.746 0.446045L54.824 0.446045L54.824 8.84595L53.704 8.84595L49.434 2L49.392 2L49.434 3.62402L49.434 8.84595L49.42 8.84595Z" fill="#FFFFFF" fill-opacity="1.000000" fill-rule="nonzero"/>
	<path id="Vector" d="M7.88196 7.78198C7.09802 8.60803 6.07605 9.02795 4.802 9.02795C3.58398 9.02795 2.54797 8.60803 1.70801 7.76794C0.868042 6.92798 0.447998 5.87805 0.447998 4.646C0.447998 3.41394 0.868042 2.36401 1.70801 1.52405C2.54797 0.68396 3.58398 0.25 4.802 0.25C5.41797 0.25 6.00598 0.361938 6.552 0.572021C7.09802 0.796021 7.54602 1.104 7.896 1.49597L7.12598 2.26599C6.87402 1.95801 6.53796 1.70605 6.11804 1.53796C5.703 1.35742 5.25452 1.26685 4.802 1.27197C3.89197 1.27197 3.10803 1.59399 2.47803 2.224C1.84802 2.86804 1.54004 3.66602 1.54004 4.63196C1.54004 5.59802 1.84802 6.396 2.47803 7.04004C3.10803 7.67004 3.87805 7.99194 4.802 7.99194C5.64197 7.99194 6.328 7.75403 6.88794 7.29199C7.448 6.82996 7.77002 6.172 7.854 5.35999L4.802 5.35999L4.802 4.35205L8.87598 4.35205C8.90405 4.57605 8.93201 4.78601 8.93201 4.98206C8.93201 6.15796 8.58203 7.09595 7.88196 7.78198ZM15.386 1.48206L11.564 1.48206L11.564 4.14197L15.0081 4.14197L15.0081 5.15002L11.564 5.15002L11.564 7.81006L15.386 7.81006L15.386 8.84595L10.486 8.84595L10.486 0.446045L15.386 0.446045L15.386 1.48206ZM19.936 8.84595L18.858 8.84595L18.858 1.48206L16.506 1.48206L16.506 0.446045L22.274 0.446045L22.274 1.48206L19.936 1.48206L19.936 8.84595ZM26.46 8.84595L26.46 0.446045L27.538 0.446045L27.538 8.84595L26.46 8.84595ZM32.326 8.84595L31.248 8.84595L31.248 1.48206L28.896 1.48206L28.896 0.446045L34.6641 0.446045L34.6641 1.48206L32.326 1.48206L32.326 8.84595ZM45.584 7.76794C44.744 8.60803 43.722 9.02795 42.504 9.02795C41.286 9.02795 40.264 8.60803 39.424 7.76794C38.598 6.92798 38.178 5.89197 38.178 4.646C38.178 3.40002 38.598 2.36401 39.424 1.52405C40.25 0.68396 41.272 0.25 42.504 0.25C43.722 0.25 44.744 0.670044 45.584 1.52405C46.424 2.37805 46.83 3.41394 46.83 4.646C46.83 5.89197 46.41 6.92798 45.584 7.76794ZM40.208 7.05396C40.824 7.68396 41.594 8.00598 42.504 8.00598C43.4141 8.00598 44.184 7.68396 44.786 7.05396C45.402 6.42395 45.71 5.62598 45.71 4.646C45.71 3.66602 45.402 2.86804 44.786 2.23804C44.17 1.60803 43.4141 1.28601 42.504 1.28601C41.594 1.28601 40.824 1.60803 40.208 2.23804C39.606 2.86804 39.298 3.68005 39.298 4.646C39.298 5.61194 39.606 6.42395 40.208 7.05396ZM48.342 8.84595L48.342 0.446045L49.658 0.446045L53.746 6.98401L53.788 6.98401L53.746 5.35999L53.746 0.446045L54.824 0.446045L54.824 8.84595L53.704 8.84595L49.434 2L49.392 2L49.434 3.62402L49.434 8.84595L49.42 8.84595L48.342 8.84595Z" stroke="#FFFFFF" stroke-opacity="1.000000" stroke-width="0.500000"/>
	<path id="Vector" d="M37.9399 21.0961C34.65 21.0961 31.962 23.6022 31.962 27.0461C31.962 30.4761 34.65 32.9961 37.9399 32.9961C41.23 32.9961 43.918 30.4761 43.918 27.0461C43.918 23.6022 41.23 21.0961 37.9399 21.0961ZM37.9399 30.6581C36.134 30.6581 34.58 29.1741 34.58 27.0461C34.58 24.9042 36.134 23.4341 37.9399 23.4341C39.746 23.4341 41.3 24.9042 41.3 27.0461C41.3 29.1741 39.7321 30.6581 37.9399 30.6581ZM24.892 21.0961C21.6021 21.0961 18.9139 23.6022 18.9139 27.0461C18.9139 30.4761 21.6021 32.9961 24.892 32.9961C28.182 32.9961 30.87 30.4761 30.87 27.0461C30.87 23.6022 28.182 21.0961 24.892 21.0961ZM24.892 30.6581C23.0861 30.6581 21.532 29.1741 21.532 27.0461C21.532 24.9042 23.0861 23.4341 24.892 23.4341C26.698 23.4341 28.252 24.9042 28.252 27.0461C28.252 29.1741 26.698 30.6581 24.892 30.6581ZM9.38 22.9302L9.38 25.4501L15.428 25.4501C15.246 26.8641 14.77 27.9141 14.056 28.6282C13.174 29.5101 11.802 30.4761 9.39404 30.4761C5.67004 30.4761 2.75806 27.4801 2.75806 23.7561C2.75806 20.0321 5.67004 17.0361 9.39404 17.0361C11.396 17.0361 12.866 17.8201 13.944 18.8422L15.722 17.0641C14.21 15.6221 12.208 14.5161 9.38 14.5161C4.28406 14.5161 0 18.6602 0 23.7701C0 28.8661 4.28406 33.0242 9.38 33.0242C12.1381 33.0242 14.21 32.1281 15.834 30.4341C17.5 28.7681 18.0179 26.4161 18.0179 24.5261C18.0179 23.9381 17.976 23.3921 17.8781 22.9441L9.38 22.9441L9.38 22.9302ZM72.814 24.8901C72.324 23.5601 70.812 21.0961 67.718 21.0961C64.652 21.0961 62.104 23.5042 62.104 27.0461C62.104 30.3782 64.624 32.9961 68.012 32.9961C70.7421 32.9961 72.324 31.3301 72.968 30.3641L70.938 29.0061C70.266 30.0001 69.342 30.6581 68.012 30.6581C66.682 30.6581 65.73 30.0562 65.1281 28.8522L73.094 25.5621L72.814 24.8901ZM64.694 26.8782C64.624 24.5822 66.472 23.4061 67.802 23.4061C68.838 23.4061 69.72 23.9241 70.014 24.6661L64.694 26.8782ZM58.226 32.6461L60.844 32.6461L60.844 15.1461L58.226 15.1461L58.226 32.6461ZM53.942 22.4261L53.844 22.4261C53.256 21.7261 52.136 21.0961 50.708 21.0961C47.726 21.0961 44.996 23.7141 44.996 27.0741C44.996 30.4061 47.726 33.0101 50.708 33.0101C52.1219 33.0101 53.256 32.3801 53.844 31.6521L53.928 31.6521L53.928 32.5061C53.928 34.7881 52.71 36.0061 50.75 36.0061C49.1541 36.0061 48.16 34.8582 47.754 33.8921L45.472 34.8441C46.13 36.4261 47.866 38.3582 50.75 38.3582C53.816 38.3582 56.406 36.5521 56.406 32.1561L56.406 21.4601L53.928 21.4601L53.928 22.4261L53.942 22.4261ZM50.932 30.6581C49.126 30.6581 47.614 29.1461 47.614 27.0741C47.614 24.9741 49.126 23.4481 50.932 23.4481C52.71 23.4481 54.11 24.9882 54.11 27.0741C54.124 29.1461 52.724 30.6581 50.932 30.6581ZM85.078 15.1461L78.8199 15.1461L78.8199 32.6461L81.438 32.6461L81.438 26.0101L85.092 26.0101C87.99 26.0101 90.832 23.9102 90.832 20.5781C90.818 17.2461 87.962 15.1461 85.078 15.1461ZM85.134 23.5741L81.424 23.5741L81.424 17.5681L85.134 17.5681C87.094 17.5681 88.2 19.1921 88.2 20.5641C88.2 21.9362 87.094 23.5741 85.134 23.5741ZM101.29 21.0681C99.4 21.0681 97.4399 21.9081 96.6281 23.7421L98.952 24.7081C99.442 23.7421 100.366 23.4202 101.332 23.4202C102.676 23.4202 104.062 24.2321 104.076 25.6741L104.076 25.8561C103.6 25.5901 102.592 25.1841 101.346 25.1841C98.84 25.1841 96.306 26.5562 96.306 29.1182C96.306 31.4561 98.35 32.9681 100.646 32.9681C102.396 32.9681 103.376 32.1841 103.978 31.2601L104.062 31.2601L104.062 32.6041L106.582 32.6041L106.582 25.8981C106.596 22.8041 104.272 21.0681 101.29 21.0681ZM100.968 30.6581C100.114 30.6581 98.924 30.2241 98.924 29.1741C98.924 27.8301 100.408 27.3121 101.696 27.3121C102.844 27.3121 103.39 27.5641 104.076 27.9001C103.979 28.6578 103.61 29.3547 103.039 29.8618C102.468 30.3689 101.732 30.6517 100.968 30.6581ZM115.78 21.4462L112.784 29.0341L112.7 29.0341L109.592 21.4462L106.778 21.4462L111.44 32.0581L108.78 37.9521L111.51 37.9521L118.692 21.4462L115.78 21.4462ZM92.26 32.6461L94.8781 32.6461L94.8781 15.1461L92.26 15.1461L92.26 32.6461Z" fill="#FFFFFF" fill-opacity="1.000000" fill-rule="nonzero"/>
</svg>
